<svg width="84" height="84" viewBox="0 0 84 84" fill="none" xmlns="http://www.w3.org/2000/svg">
<path d="M81.5834 29.5H60.75L68.5 21.75C65.3881 17.6764 61.3777 14.3764 56.7812 12.107C52.1846 9.83769 47.1262 8.66032 42 8.66666C23.5833 8.66666 8.66668 23.5833 8.66668 42C8.66668 49.625 11.2083 56.5833 15.5 62.2083C20.5833 56.375 30.125 52.4167 42 52.4167C53.875 52.4167 63.4584 56.375 68.5 62.2083C72.9452 56.4108 75.3478 49.3056 75.3334 42H83.6667C83.6667 64.9167 64.9167 83.6667 42 83.6667C19.0833 83.6667 0.333344 64.9167 0.333344 42C0.333344 19.0833 19.0833 0.333328 42 0.333328C55.0833 0.333328 66.7917 6.37499 74.4167 15.8333L81.5834 8.66666V29.5ZM42 21.1667C48.9167 21.1667 54.5 26.75 54.5 33.6667C54.5 40.5833 48.9167 46.1667 42 46.1667C35.0833 46.1667 29.5 40.5833 29.5 33.6667C29.5 26.75 35.0833 21.1667 42 21.1667Z" fill="white"/>
</svg>
