<svg width="43" height="23" viewBox="0 0 43 23" fill="none" xmlns="http://www.w3.org/2000/svg">
<path d="M39.9301 0.63966L21.5 18.6052L3.06987 0.63966C2.74058 0.318028 2.29854 0.137965 1.83824 0.137965C1.37794 0.137965 0.935902 0.318028 0.606616 0.63966C0.447177 0.795878 0.320511 0.982339 0.234039 1.18812C0.147567 1.39391 0.103027 1.61488 0.103027 1.8381C0.103027 2.06131 0.147567 2.28228 0.234039 2.48807C0.320511 2.69385 0.447177 2.88032 0.606616 3.03653L20.2131 22.1525C20.5574 22.4881 21.0192 22.676 21.5 22.676C21.9808 22.676 22.4426 22.4881 22.7869 22.1525L42.3934 3.04022C42.5539 2.88389 42.6816 2.69697 42.7687 2.4905C42.8558 2.28403 42.9007 2.0622 42.9007 1.8381C42.9007 1.61399 42.8558 1.39216 42.7687 1.18569C42.6816 0.979225 42.5539 0.792307 42.3934 0.635971C42.0641 0.314339 41.622 0.134277 41.1617 0.134277C40.7014 0.134277 40.2594 0.314339 39.9301 0.635971V0.63966Z" fill="white"/>
</svg>
