<svg width="57" height="55" viewBox="0 0 57 55" fill="none" xmlns="http://www.w3.org/2000/svg">
<path d="M29.1157 0.205083C19.4355 0.179692 10.917 5.18799 6.04834 12.7544C5.83252 13.0908 6.07373 13.5352 6.47363 13.5352H10.936C11.2407 13.5352 11.5264 13.4019 11.7168 13.167C12.1611 12.6274 12.6372 12.1069 13.1387 11.6118C15.208 9.54883 17.6138 7.92383 20.2925 6.79395C23.0601 5.62598 26.0054 5.0293 29.0459 5.0293C32.0864 5.0293 35.0317 5.61963 37.7993 6.79395C40.478 7.92383 42.8838 9.54883 44.9531 11.6118C47.0225 13.6748 48.6411 16.0806 49.7773 18.7529C50.9517 21.5205 51.542 24.4595 51.542 27.5C51.542 30.5405 50.9453 33.4795 49.7773 36.2471C48.6475 38.9194 47.0225 41.3252 44.9531 43.3882C42.8838 45.4512 40.478 47.0762 37.7993 48.2061C35.0296 49.3759 32.0526 49.9761 29.0459 49.9707C26.0054 49.9707 23.0601 49.374 20.2925 48.2061C17.619 47.0773 15.1896 45.4412 13.1387 43.3882C12.6372 42.8867 12.1675 42.3662 11.7168 41.833C11.5264 41.5981 11.2344 41.4648 10.936 41.4648H6.47363C6.07373 41.4648 5.82617 41.9092 6.04834 42.2456C10.9106 49.793 19.3911 54.7949 29.0459 54.7949C44.0391 54.7949 56.2139 42.728 56.3662 27.7793C56.5186 12.5894 44.3247 0.243169 29.1157 0.205083ZM21.0745 34.6094V29.7852H1.14287C0.863575 29.7852 0.635059 29.5566 0.635059 29.2773V25.7227C0.635059 25.4434 0.863575 25.2148 1.14287 25.2148H21.0745V20.3906C21.0745 19.9653 21.5696 19.7241 21.8997 19.9907L30.907 27.1001C30.9677 27.1476 31.0168 27.2083 31.0506 27.2776C31.0843 27.3469 31.1019 27.4229 31.1019 27.5C31.1019 27.5771 31.0843 27.6531 31.0506 27.7224C31.0168 27.7917 30.9677 27.8524 30.907 27.8999L21.8997 35.0093C21.5696 35.2695 21.0745 35.0347 21.0745 34.6094Z" fill="black"/>
</svg>
