<svg width="39" height="56" viewBox="0 0 39 56" fill="none" xmlns="http://www.w3.org/2000/svg">
<path fill-rule="evenodd" clip-rule="evenodd" d="M16.8756 29.6694L2.34271 2.33416C2.25921 2.17714 2.20747 2.0052 2.19042 1.82818C2.17338 1.65116 2.19137 1.47251 2.24336 1.30244C2.34837 0.958963 2.58553 0.671271 2.90265 0.502652C3.21978 0.334032 3.5909 0.298297 3.93438 0.403308C4.10445 0.455303 4.26261 0.540288 4.39984 0.65341C4.53707 0.766531 4.65067 0.905575 4.73416 1.0626L19.2684 28.3978L21.3295 27.3009C21.9577 26.967 22.6455 26.76 23.3536 26.6919C24.0618 26.6238 24.7764 26.6959 25.4567 26.904C26.137 27.1121 26.7697 27.4522 27.3185 27.9048C27.8674 28.3575 28.3217 28.9138 28.6555 29.5421L29.533 31.1928L38.8361 44.8076L27.0034 51.0977L22.9044 42.9957L20.4885 44.2185L24.612 52.3706L19.5393 55.0668L13.4523 39.7403L12.5761 38.0909C12.2421 37.4628 12.0351 36.7751 11.9669 36.067C11.8987 35.3589 11.9707 34.6443 12.1786 33.964C12.3866 33.2837 12.7266 32.651 13.1791 32.1021C13.6316 31.5532 14.1878 31.0988 14.8159 30.7649L16.877 29.6694H16.8756ZM22.5997 29.6937L16.0861 33.1563C15.7721 33.3233 15.494 33.5505 15.2677 33.825C15.0415 34.0994 14.8715 34.4158 14.7675 34.7559C14.6635 35.096 14.6275 35.4534 14.6616 35.8074C14.6957 36.1615 14.7992 36.5053 14.9662 36.8194L15.8424 38.4687L27.1402 32.4617L26.2627 30.8136C26.0957 30.4996 25.8685 30.2215 25.5941 29.9952C25.3196 29.769 25.0033 29.599 24.6632 29.495C24.323 29.391 23.9657 29.355 23.6117 29.3891C23.2576 29.4232 22.9137 29.5267 22.5997 29.6937Z" fill="black"/>
<path d="M11.0608 42.8833C10.8311 42.6074 10.5012 42.434 10.1437 42.4012C9.78612 42.3685 9.4302 42.479 9.15416 42.7086H9.15687L9.14198 42.7195L9.05666 42.7845C8.93549 42.8755 8.81176 42.9631 8.68562 43.0472C8.34979 43.2706 7.84875 43.5753 7.20416 43.8813C5.54733 44.6777 3.73408 45.0954 1.89583 45.1042C1.53668 45.1042 1.19225 45.2468 0.938291 45.5008C0.684335 45.7547 0.541664 46.0992 0.541664 46.4583C0.541664 46.8175 0.684335 47.1619 0.938291 47.4159C1.19225 47.6698 1.53668 47.8125 1.89583 47.8125C4.13698 47.8038 6.3481 47.2964 8.36875 46.327C8.99905 46.0285 9.60726 45.6855 10.1887 45.3005C10.4065 45.1549 10.6187 45.0013 10.8252 44.8401L10.8658 44.8089L10.8794 44.7981L10.8834 44.7927H10.8861L10.8875 44.79C11.1632 44.5601 11.3364 44.2301 11.3689 43.8725C11.4014 43.515 11.2906 43.1592 11.0608 42.8833ZM13.8558 49.7693C13.9545 49.9172 14.0232 50.0832 14.0577 50.2576C14.0923 50.4321 14.0922 50.6117 14.0573 50.7861C14.0225 50.9605 13.9537 51.1263 13.8547 51.2741C13.7558 51.4219 13.6287 51.5488 13.4807 51.6475L13.478 51.6502L13.4726 51.6529L13.4591 51.661L13.4171 51.6881C13.1826 51.8373 12.9447 51.9808 12.7034 52.1187C12.2281 52.3909 11.5524 52.7525 10.7399 53.1127C9.14198 53.8236 6.9076 54.5833 4.60416 54.5833C4.24502 54.5833 3.90058 54.4407 3.64662 54.1867C3.39267 53.9327 3.25 53.5883 3.25 53.2292C3.25 52.87 3.39267 52.5256 3.64662 52.2716C3.90058 52.0177 4.24502 51.875 4.60416 51.875C6.36187 51.875 8.19271 51.2805 9.64031 50.6373C10.3945 50.3008 11.1263 49.9163 11.8314 49.4862C11.8709 49.463 11.9097 49.4386 11.9478 49.4131L11.9749 49.3969L11.9776 49.3942C12.1255 49.2954 12.2915 49.2268 12.466 49.1923C12.6404 49.1577 12.82 49.1578 12.9944 49.1926C13.1688 49.2275 13.3347 49.2963 13.4825 49.3953C13.6303 49.4942 13.7571 49.6213 13.8558 49.7693Z" fill="black"/>
</svg>
