<svg width="50" height="50" viewBox="0 0 50 50" fill="none" xmlns="http://www.w3.org/2000/svg">
<path d="M48.125 13.75C48.5781 13.75 49.0159 13.9141 49.3573 14.2119C49.6988 14.5097 49.9209 14.9211 49.9825 15.37L50 15.625V36.875C50.0001 38.9503 49.2061 40.9471 47.7808 42.4556C46.3555 43.9641 44.407 44.87 42.335 44.9875L41.875 45H10.1525L11.9525 46.8C12.2697 47.1178 12.4623 47.5388 12.4953 47.9866C12.5283 48.4344 12.3996 48.8791 12.1325 49.24L11.95 49.45C11.6325 49.7676 11.2116 49.9606 10.7639 49.9941C10.3161 50.0276 9.87118 49.8993 9.51 49.6325L9.3 49.45L4.3 44.45L4.14 44.27C4.13412 44.2617 4.12829 44.2534 4.1225 44.245L4.2975 44.45C4.01235 44.1626 3.82746 43.7909 3.77026 43.3901C3.71307 42.9893 3.78662 42.5807 3.98 42.225C4.06662 42.0693 4.1743 41.9263 4.3 41.8L9.3 36.8C9.635 36.4676 10.083 36.2738 10.5547 36.2572C11.0263 36.2405 11.4868 36.4024 11.8444 36.7104C12.2019 37.0184 12.4302 37.4499 12.4836 37.9188C12.537 38.3877 12.4116 38.8595 12.1325 39.24L11.95 39.45L10.15 41.25H41.875C42.9734 41.2499 44.0315 40.8367 44.8393 40.0924C45.647 39.3481 46.1452 38.3272 46.235 37.2325L46.25 36.875V15.625C46.25 15.1277 46.4475 14.6508 46.7992 14.2992C47.1508 13.9475 47.6277 13.75 48.125 13.75ZM40.49 0.367503L40.7 0.550002L45.7 5.55C45.7639 5.61316 45.8233 5.68084 45.8775 5.7525L45.7025 5.55C46.0507 5.90047 46.247 6.37391 46.2489 6.86795C46.2507 7.36199 46.058 7.83691 45.7125 8.19L45.7 8.2L40.7 13.2C40.365 13.5324 39.917 13.7262 39.4453 13.7428C38.9737 13.7595 38.5132 13.5976 38.1556 13.2896C37.7981 12.9816 37.5698 12.5501 37.5164 12.0812C37.463 11.6123 37.5884 11.1405 37.8675 10.76L38.05 10.55L39.845 8.75H8.125C7.02703 8.75004 5.96921 9.16293 5.16152 9.9067C4.35384 10.6505 3.85535 11.6708 3.765 12.765L3.75 13.125V34.375C3.74985 34.8501 3.56939 35.3074 3.24507 35.6545C2.92075 36.0016 2.47675 36.2127 2.0028 36.2451C1.52885 36.2774 1.06027 36.1287 0.691753 35.8289C0.323236 35.5291 0.0822535 35.1006 0.0174999 34.63L1.7438e-08 34.375V13.125C-0.000135867 11.0497 0.793885 9.05293 2.21918 7.54443C3.64447 6.03592 5.59298 5.13 7.665 5.0125L8.125 5H39.8475L38.0475 3.2C37.7303 2.88222 37.5377 2.46117 37.5047 2.01341C37.4717 1.56564 37.6004 1.12089 37.8675 0.760002L38.05 0.550002C38.3675 0.232458 38.7884 0.0393879 39.2361 0.00589672C39.6839 -0.0275945 40.1288 0.100718 40.49 0.367503ZM25 15C27.6522 15 30.1957 16.0536 32.0711 17.9289C33.9464 19.8043 35 22.3478 35 25C35 27.6522 33.9464 30.1957 32.0711 32.0711C30.1957 33.9464 27.6522 35 25 35C22.3478 35 19.8043 33.9464 17.9289 32.0711C16.0536 30.1957 15 27.6522 15 25C15 22.3478 16.0536 19.8043 17.9289 17.9289C19.8043 16.0536 22.3478 15 25 15Z" fill="black"/>
</svg>
