<svg width="90" height="74" viewBox="0 0 90 74" fill="none" xmlns="http://www.w3.org/2000/svg">
<path d="M45 28.6667V56.8708M19.3292 29.2313C10.1563 31.4125 3.33334 39.6604 3.33334 49.5C3.33334 61.0063 12.6604 70.3333 24.1667 70.3333C26.1396 70.3333 28.05 70.0583 29.8604 69.5458L19.3292 29.2313ZM70.1146 29.2313C79.2875 31.4125 86.1083 39.6604 86.1083 49.5C86.1083 61.0063 76.7813 70.3333 65.275 70.3333C63.3021 70.3333 61.3917 70.0583 59.5833 69.5458L70.1146 29.2313ZM70 28.6667C70 14.8604 58.8063 3.66667 45 3.66667C31.1938 3.66667 20 14.8604 20 28.6667H70ZM30.5521 49.7479L45 64.2417L59.8583 49.5L30.5521 49.7479Z" stroke="white" stroke-width="6" stroke-linecap="round" stroke-linejoin="round"/>
</svg>
