<svg width="40" height="53" viewBox="0 0 40 53" fill="none" xmlns="http://www.w3.org/2000/svg">
<path d="M20 0.5C23.4583 0.5 26.4067 1.71833 28.845 4.155C31.2817 6.59333 32.5 9.54167 32.5 13V18H35C36.375 18 37.5525 18.4892 38.5325 19.4675C39.5108 20.4475 40 21.625 40 23V48C40 49.375 39.5108 50.5525 38.5325 51.5325C37.5525 52.5108 36.375 53 35 53H5C3.625 53 2.44833 52.5108 1.47 51.5325C0.49 50.5525 0 49.375 0 48V23C0 21.625 0.49 20.4475 1.47 19.4675C2.44833 18.4892 3.625 18 5 18H7.5V13C7.5 9.54167 8.71917 6.59333 11.1575 4.155C13.5942 1.71833 16.5417 0.5 20 0.5ZM20 5.5C17.9167 5.5 16.1458 6.22917 14.6875 7.6875C13.2292 9.14583 12.5 10.9167 12.5 13V18H27.5V13C27.5 10.9167 26.7708 9.14583 25.3125 7.6875C23.8542 6.22917 22.0833 5.5 20 5.5ZM5 48H35V23H5V48ZM5 23V48V23ZM17.5 45.5H22.5V38H30V33H22.5V25.5H17.5V33H10V38H17.5V45.5Z" fill="black"/>
</svg>
