<svg width="57" height="55" viewBox="0 0 57 55" fill="none" xmlns="http://www.w3.org/2000/svg">
<path fill-rule="evenodd" clip-rule="evenodd" d="M27.2812 3.94792C14.2972 3.94792 3.72916 14.5159 3.72916 27.5C3.72916 40.4841 14.2972 51.0521 27.2812 51.0521C40.2653 51.0521 50.8333 40.4841 50.8333 27.5C50.8333 14.5159 40.2653 3.94792 27.2812 3.94792ZM0.729156 27.5C0.729156 12.8591 12.6403 0.947922 27.2812 0.947922C41.9222 0.947922 53.8333 12.8591 53.8333 27.5C53.8333 42.1409 41.9222 54.0521 27.2812 54.0521C12.6403 54.0521 0.729156 42.1409 0.729156 27.5Z" fill="black"/>
<path fill-rule="evenodd" clip-rule="evenodd" d="M50.7278 4.63877C48.8883 5.32317 46.4361 6.61265 43.3993 8.58154C42.7042 9.03222 41.7754 8.83406 41.3247 8.13895C40.874 7.44384 41.0722 6.51499 41.7673 6.06432C44.892 4.03842 47.5517 2.61956 49.6817 1.82708C50.7454 1.43131 51.7308 1.17121 52.6094 1.08998C53.4707 1.01035 54.3807 1.08901 55.1559 1.54258C55.9993 2.03606 56.4618 2.84154 56.604 3.73816C56.7368 4.57479 56.5971 5.48875 56.3212 6.4038C55.7675 8.24084 54.5127 10.5676 52.6215 13.3186C45.0545 24.325 28.7934 40.0335 16.316 48.1232C13.1913 50.1491 10.5316 51.568 8.40163 52.3604C7.33792 52.7562 6.35249 53.0163 5.47388 53.0975C4.61259 53.1772 3.70254 53.0985 2.92735 52.6449C2.08396 52.1515 1.6215 51.346 1.47924 50.4494C1.3465 49.6127 1.48621 48.6988 1.76205 47.7837C2.31581 45.9467 3.57055 43.6199 5.46183 40.869C5.93116 40.1863 6.86503 40.0134 7.54768 40.4827C8.23034 40.952 8.40328 41.8859 7.93395 42.5686C6.10127 45.2343 5.05393 47.2578 4.63439 48.6496C4.42357 49.3489 4.40883 49.769 4.44218 49.9792C4.44869 50.0203 4.45618 50.0479 4.46185 50.0648C4.52444 50.0908 4.73338 50.1532 5.1977 50.1103C5.72087 50.0619 6.43449 49.8914 7.35549 49.5488C9.19496 48.8643 11.6472 47.5749 14.684 45.606C26.8524 37.7165 42.8204 22.2792 50.1493 11.619C51.982 8.95325 53.0294 6.92975 53.4489 5.53796C53.6597 4.83859 53.6745 4.41847 53.6411 4.20828C53.6346 4.1672 53.6271 4.13964 53.6214 4.12269C53.5588 4.0967 53.3499 4.03431 52.8856 4.07724C52.3624 4.12561 51.6488 4.29609 50.7278 4.63877Z" fill="black"/>
<path fill-rule="evenodd" clip-rule="evenodd" d="M22.2589 1.46006C22.8302 1.23318 23.4821 1.37787 23.9039 1.82515L34.8237 13.4068C35.0172 13.4015 35.2118 13.4337 35.3965 13.5038L39.3236 14.9933C39.6843 15.1301 39.9784 15.4006 40.1448 15.7486L41.6344 18.8632C41.6931 18.9859 41.7348 19.1159 41.7584 19.2497L42.1647 21.5518C42.2799 22.2046 41.9529 22.8556 41.3606 23.153C40.7682 23.4504 40.0508 23.3238 39.5961 22.8415L34.0538 16.9633L31.5896 18.1529C31.1811 18.3501 30.7053 18.3519 30.2953 18.1577L25.1495 15.7202C24.9244 15.6135 24.7294 15.4525 24.582 15.2516L21.6029 11.1891C21.4142 10.9319 21.3125 10.6211 21.3125 10.3021V2.85416C21.3125 2.23944 21.6876 1.68693 22.2589 1.46006ZM31.8953 14.674L24.3125 6.63162V9.81103L26.7768 13.1715L30.9313 15.1394L31.8953 14.674ZM12.3854 15.7292C11.318 15.7292 10.5 16.5472 10.5 17.6146C10.5 18.682 11.318 19.5 12.3854 19.5C13.4528 19.5 14.2708 18.682 14.2708 17.6146C14.2708 16.5472 13.4528 15.7292 12.3854 15.7292ZM7.49998 17.6146C7.49998 14.8903 9.66113 12.7292 12.3854 12.7292C15.1097 12.7292 17.2708 14.8903 17.2708 17.6146C17.2708 20.1758 15.3607 22.2392 12.8683 22.4771C12.9249 22.5027 12.9803 22.532 13.0338 22.5648L17.2317 25.1378C17.417 25.2513 17.5754 25.4038 17.696 25.5846L20.4043 29.6471C20.4841 29.7668 20.5462 29.8972 20.5888 30.0346L21.5643 33.1776L26.1894 34.4495C26.9723 34.6648 27.4417 35.4639 27.2486 36.2526C27.0555 37.0412 26.27 37.533 25.4762 37.3623L2.18452 32.3519C1.69356 32.2463 1.28803 31.902 1.10415 31.4346C0.920268 30.9673 0.982444 30.439 1.26979 30.0271L5.33229 24.2042C5.54957 23.8928 5.87688 23.6754 6.24818 23.5958L11.6273 22.4431C9.27089 22.0853 7.49998 20.0806 7.49998 17.6146ZM18.2897 32.7477L17.7879 31.1308L15.3828 27.5232L11.9776 25.4362L7.45456 26.4054L5.02105 29.8934L18.2897 32.7477ZM51.5501 17.1855C52.1551 17.5957 52.3763 18.3823 52.0739 19.0478L50.0426 23.5165C49.9566 23.7058 49.8322 23.8751 49.6773 24.0137L47.1043 26.3158C46.8293 26.5619 46.4732 26.6979 46.1041 26.6979H44.2083C43.6072 26.6979 43.0641 26.339 42.8284 25.786C42.5927 25.2331 42.7099 24.5928 43.1262 24.1591L49.6262 17.3883C50.1325 16.861 50.9451 16.7753 51.5501 17.1855ZM36.4664 24.5894C36.3069 23.3965 35.2271 22.5514 34.0164 22.6321L34.0102 22.6325C32.7335 22.7123 31.8082 23.8338 31.8925 25.0981L31.8929 25.1043C31.9618 26.2076 32.8088 27.0485 33.8535 27.2022L36.4664 24.5894ZM33.8198 19.6385C36.6169 19.4536 39.2852 21.5071 39.4762 24.5627C39.4782 24.5938 39.4791 24.625 39.4791 24.6562V25.1979C39.4791 25.5957 39.3211 25.9773 39.0398 26.2586L35.519 29.7794C35.2621 30.0363 34.9206 30.1913 34.5581 30.2154C31.7609 30.4019 29.0917 28.3496 28.8989 25.2948C28.7141 22.4986 30.766 19.8312 33.8198 19.6385ZM52.813 33.6445C53.1111 34.1502 53.0868 34.7833 52.7509 35.2647L43.6779 48.2647C43.3616 48.718 42.8217 48.9605 42.2728 48.896C41.7238 48.8315 41.2549 48.4703 41.0523 47.956L39.6031 44.2775L38.0034 44.0108C37.2312 43.8821 36.6878 43.1812 36.7556 42.4013L37.0265 39.2867C37.0659 38.8328 37.3096 38.4214 37.6888 38.1686L44.1888 33.8353C44.3912 33.7003 44.6234 33.6166 44.8654 33.5914L51.3654 32.9143C51.9493 32.8535 52.5149 33.1388 52.813 33.6445ZM45.5447 36.5369L39.9527 40.2648L39.8645 41.2796L40.9341 41.4579C41.4538 41.5445 41.89 41.8975 42.0831 42.3877L42.8184 44.2544L48.4132 36.2381L45.5447 36.5369ZM29.8966 37.826C30.7003 37.6251 31.5147 38.1138 31.7156 38.9174L32.5281 42.1674C32.6295 42.5729 32.5571 43.0023 32.3283 43.3521L30.0263 46.873C29.8696 47.1126 29.6475 47.3024 29.3864 47.42L23.9697 49.8575C23.8481 49.9122 23.7198 49.9504 23.5881 49.9712L15.8693 51.19C15.0511 51.3192 14.283 50.7606 14.1538 49.9423C14.0245 49.124 14.5832 48.3559 15.4015 48.2267L22.9218 47.0393L27.7553 44.8642L29.4587 42.2591L28.8052 39.6451C28.6043 38.8414 29.0929 38.027 29.8966 37.826Z" fill="black"/>
</svg>
